# Blender v2.90.0 OBJ File: ''
# www.blender.org
o cooler
v -0.223200 0.000000 0.115200
v -0.223200 0.064800 0.180000
v -0.288000 0.064800 0.115200
v -0.223200 0.018979 0.161021
v -0.260612 0.027388 0.152612
v -0.269020 0.064800 0.161021
v -0.269020 0.018979 0.115200
v -0.248000 0.323877 0.200000
v -0.248000 0.395877 0.128000
v -0.320000 0.323877 0.128000
v -0.248000 0.374789 0.178912
v -0.289569 0.365446 0.169569
v -0.298912 0.374789 0.128000
v -0.298912 0.323877 0.178912
v -0.223200 0.000000 -0.115200
v -0.288000 0.064800 -0.115200
v -0.223200 0.064800 -0.180000
v -0.269020 0.018979 -0.115200
v -0.260612 0.027388 -0.152612
v -0.269020 0.064800 -0.161021
v -0.223200 0.018979 -0.161021
v -0.248000 0.395877 -0.128000
v -0.248000 0.323877 -0.200000
v -0.320000 0.323877 -0.128000
v -0.248000 0.374789 -0.178912
v -0.289569 0.365446 -0.169569
v -0.298912 0.323877 -0.178912
v -0.298912 0.374789 -0.128000
v -0.312000 0.311877 0.023520
v -0.297000 0.343877 0.023520
v -0.312000 0.311877 -0.023520
v -0.297000 0.343877 -0.023520
v -0.297000 0.491955 0.023520
v -0.255292 0.539877 0.023520
v -0.286905 0.525841 0.023520
v -0.267292 0.555877 0.023520
v -0.312000 0.507955 0.023520
v -0.298905 0.541841 0.023520
v -0.312000 0.507955 -0.023520
v -0.267292 0.555877 -0.023520
v -0.298905 0.541841 -0.023520
v -0.255292 0.539877 -0.023520
v -0.297000 0.491955 -0.023520
v -0.286905 0.525841 -0.023520
v 0.223200 0.000000 0.115200
v 0.223200 0.064800 0.180000
v 0.288000 0.064800 0.115200
v 0.223200 0.018979 0.161021
v 0.260612 0.027388 0.152612
v 0.269020 0.064800 0.161021
v 0.269020 0.018979 0.115200
v 0.248000 0.323877 0.200000
v 0.248000 0.395877 0.128000
v 0.320000 0.323877 0.128000
v 0.248000 0.374789 0.178912
v 0.289569 0.365446 0.169569
v 0.298912 0.374789 0.128000
v 0.298912 0.323877 0.178912
v 0.223200 0.000000 -0.115200
v 0.288000 0.064800 -0.115200
v 0.223200 0.064800 -0.180000
v 0.269020 0.018979 -0.115200
v 0.260612 0.027388 -0.152612
v 0.269020 0.064800 -0.161021
v 0.223200 0.018979 -0.161021
v 0.248000 0.395877 -0.128000
v 0.248000 0.323877 -0.200000
v 0.320000 0.323877 -0.128000
v 0.248000 0.374789 -0.178912
v 0.289569 0.365446 -0.169569
v 0.298912 0.323877 -0.178912
v 0.298912 0.374789 -0.128000
v 0.312000 0.311877 0.023520
v 0.297000 0.343877 0.023520
v 0.312000 0.311877 -0.023520
v 0.297000 0.343877 -0.023520
v 0.297000 0.491955 0.023520
v 0.255292 0.539877 0.023520
v 0.286905 0.525841 0.023520
v 0.267292 0.555877 0.023520
v 0.312000 0.507955 0.023520
v 0.298905 0.541841 0.023520
v 0.312000 0.507955 -0.023520
v 0.267292 0.555877 -0.023520
v 0.298905 0.541841 -0.023520
v 0.255292 0.539877 -0.023520
v 0.297000 0.491955 -0.023520
v 0.286905 0.525841 -0.023520
vt 0.480388 0.101786
vt 0.672129 0.452146
vt 0.477603 0.429355
vt 0.369577 0.663300
vt 0.110823 0.906609
vt 0.108901 0.680004
vt 0.650283 0.904577
vt 0.681586 0.935928
vt 0.651969 0.941323
vt 0.444889 0.459965
vt 0.440417 0.430144
vt 0.064970 0.639304
vt 0.104245 0.630482
vt 0.048352 0.498936
vt 0.098794 0.516882
vt 0.074393 0.542322
vt 0.131445 0.482572
vt 0.091344 0.486000
vt 0.119393 0.567862
vt 0.130261 0.522460
vt 0.480179 0.904167
vt 0.448668 0.936199
vt 0.443113 0.906192
vt 0.067996 0.947399
vt 0.061742 0.908267
vt 0.479899 0.102577
vt 0.447564 0.071941
vt 0.476829 0.065746
vt 0.314339 0.479970
vt 0.347741 0.512946
vt 0.317178 0.519692
vt 0.396846 0.494134
vt 0.354227 0.482332
vt 0.329383 0.562537
vt 0.372111 0.537039
vt 0.478703 0.941590
vt 0.059149 0.679135
vt 0.474339 0.466443
vt 0.672253 0.080051
vt 0.669874 0.039037
vt 0.106758 0.955631
vt 0.369577 0.922112
vt 0.366164 0.976873
vt 0.672253 0.452242
vt 0.478347 0.430238
vt 0.440417 0.573452
vt 0.443839 0.100493
vt 0.087801 0.122975
vt 0.042818 0.110912
vt 0.686983 0.574005
vt 0.649547 0.575679
vt 0.396846 0.108292
vt 0.352613 0.120716
vt 0.312628 0.123247
vt 0.442859 0.101481
vt 0.128246 0.125175
vt 0.745880 0.258769
vt 0.760032 0.739744
vt 0.745373 0.745969
vt 0.820615 0.257949
vt 0.859709 0.745458
vt 0.819807 0.748253
vt 0.759179 0.064203
vt 0.745398 0.208868
vt 0.746057 0.035929
vt 0.850780 0.031400
vt 0.819076 0.204966
vt 0.807881 0.033582
vt 0.796093 0.063476
vt 0.804768 0.194612
vt 0.759106 0.197301
vt 0.758832 0.232241
vt 0.759835 0.265052
vt 0.805628 0.229400
vt 0.823444 0.232188
vt 0.804768 0.264699
vt 0.858937 0.201929
vt 0.860106 0.232873
vt 0.805221 0.741694
vt 0.110823 0.678183
vt 0.369577 0.921492
vt 0.108901 0.904788
vt 0.681511 0.543897
vt 0.448576 0.071312
vt 0.477513 0.065265
vt 0.064970 0.945488
vt 0.059149 0.905657
vt 0.094329 0.091293
vt 0.126068 0.084834
vt 0.113962 0.039037
vt 0.068780 0.065866
vt 0.478226 0.575186
vt 0.445960 0.542802
vt 0.476605 0.537222
vt 0.067996 0.637393
vt 0.106758 0.629161
vt 0.446167 0.460689
vt 0.441657 0.431226
vt 0.345908 0.089552
vt 0.370508 0.064491
vt 0.326404 0.039406
vt 0.314822 0.083157
vt 0.061743 0.676525
vt 0.672129 0.079892
vt 0.104245 0.954310
vt 0.365924 0.976737
vt 0.475293 0.467011
vt 0.369577 0.662680
vt 0.366164 0.607919
vt 0.744116 0.796349
vt 0.755721 0.942196
vt 0.742068 0.970454
vt 0.818066 0.801371
vt 0.847533 0.976716
vt 0.804331 0.973841
vt 0.792883 0.943511
vt 0.757725 0.808197
vt 0.758055 0.773014
vt 0.740999 0.769128
vt 0.804872 0.776640
vt 0.822699 0.774023
vt 0.803523 0.811586
vt 0.858411 0.805021
vt 0.860106 0.773647
vt 0.686983 0.906312
vt 0.669683 0.493651
vt 0.365924 0.608055
vt 0.859380 0.260491
vt 0.741892 0.235818
vt 0.651407 0.538384
vt 0.669838 0.039037
vt 0.669928 0.493588
vn 0.1727 -0.2253 0.9589
vn -0.1855 0.1328 0.9736
vn -0.1727 -0.2253 0.9589
vn -0.9764 0.1156 0.1824
vn -0.9539 -0.2433 -0.1753
vn -0.9539 -0.2433 0.1753
vn -0.1794 -0.9673 0.1794
vn -0.5773 -0.5773 0.5773
vn -0.6993 -0.6993 0.1479
vn -0.1479 -0.6993 0.6993
vn -0.6879 -0.2124 0.6940
vn -0.5773 0.5773 0.5773
vn -0.7073 0.0844 0.7018
vn -0.1794 0.9673 0.1794
vn -0.1479 0.6993 0.6993
vn -0.6993 0.6993 0.1479
vn -0.1794 -0.9673 -0.1794
vn -0.5773 -0.5773 -0.5773
vn -0.1479 -0.6993 -0.6993
vn -0.6993 -0.6993 -0.1479
vn -0.1727 -0.2253 -0.9589
vn -0.6879 -0.2124 -0.6940
vn -0.1794 0.9673 -0.1794
vn -0.5773 0.5773 -0.5773
vn -0.6993 0.6993 -0.1479
vn -0.1855 0.1328 -0.9736
vn -0.1479 0.6993 -0.6993
vn -0.9764 0.1156 -0.1824
vn -0.7073 0.0844 -0.7018
vn 0.1855 0.1328 -0.9736
vn 0.1727 -0.2253 -0.9589
vn 0.1479 -0.6993 -0.6993
vn 0.1479 -0.6993 0.6993
vn 0.1479 0.6993 0.6993
vn 0.1855 0.1328 0.9736
vn 0.1794 -0.9673 0.1794
vn 0.1479 0.6993 -0.6993
vn 0.1794 0.9673 -0.1794
vn 0.1794 0.9673 0.1794
vn -0.1552 0.7321 0.6633
vn -0.1355 -0.6393 0.7569
vn 0.1552 0.7321 0.6633
vn -0.1552 0.7321 -0.6633
vn 0.1552 0.7321 -0.6633
vn 0.5024 0.0000 0.8646
vn -0.7315 0.1364 0.6681
vn -0.9632 0.0000 0.2688
vn -0.7315 0.1364 -0.6681
vn -0.9632 0.0000 -0.2688
vn 0.5024 0.0000 -0.8646
vn 0.6644 -0.0968 -0.7411
vn 0.6644 -0.0968 0.7411
vn 0.4357 -0.3831 0.8144
vn 0.1355 -0.6393 0.7569
vn 0.4357 -0.3831 -0.8144
vn -0.5622 0.5353 -0.6304
vn 0.1355 -0.6393 -0.7569
vn -0.5622 0.5353 0.6304
vn -0.1355 -0.6393 -0.7569
vn 0.9539 -0.2433 -0.1753
vn 0.9764 0.1156 0.1824
vn 0.9539 -0.2433 0.1753
vn 0.5773 -0.5773 0.5773
vn 0.6879 -0.2124 0.6940
vn 0.6993 -0.6993 0.1479
vn 0.5773 0.5773 0.5773
vn 0.6993 0.6993 0.1479
vn 0.7073 0.0844 0.7018
vn 0.1794 -0.9673 -0.1794
vn 0.5773 -0.5773 -0.5773
vn 0.6993 -0.6993 -0.1479
vn 0.6879 -0.2124 -0.6940
vn 0.5773 0.5773 -0.5773
vn 0.7073 0.0844 -0.7018
vn 0.9764 0.1156 -0.1824
vn 0.6993 0.6993 -0.1479
vn 0.7315 0.1364 0.6681
vn -0.5024 0.0000 0.8646
vn 0.9632 0.0000 0.2688
vn 0.7315 0.1364 -0.6681
vn 0.9632 0.0000 -0.2688
vn -0.5024 0.0000 -0.8646
vn -0.6644 -0.0968 0.7411
vn -0.4357 -0.3831 0.8144
vn 0.5622 0.5353 0.6304
vn -0.4357 -0.3831 -0.8144
vn 0.5622 0.5353 -0.6304
vn -0.6644 -0.0968 -0.7411
s 1
f 46/1/1 8/2/2 2/3/3
f 10/4/4 16/5/5 3/6/6
f 1/7/7 5/8/8 7/9/9
f 2/3/3 5/10/8 4/11/10
f 3/6/6 5/12/8 6/13/11
f 8/14/2 12/15/12 14/16/13
f 9/17/14 12/15/12 11/18/15
f 10/19/4 12/15/12 13/20/16
f 15/21/17 19/22/18 21/23/19
f 16/5/5 19/24/18 18/25/20
f 17/26/21 19/27/18 20/28/22
f 22/29/23 26/30/24 28/31/25
f 23/32/26 26/30/24 25/33/27
f 24/34/28 26/30/24 27/35/29
f 1/7/7 18/36/20 15/21/17
f 7/37/9 16/5/5 18/25/20
f 8/2/2 6/38/11 2/3/3
f 6/13/11 10/4/4 3/6/6
f 22/29/23 13/20/16 9/17/14
f 28/31/25 10/19/4 13/20/16
f 23/39/26 20/28/22 27/40/29
f 20/41/22 24/42/28 27/43/29
f 17/26/21 67/44/30 61/45/31
f 65/46/32 15/21/17 21/23/19
f 46/1/1 4/11/10 48/47/33
f 55/48/34 9/17/14 11/18/15
f 52/49/35 11/18/15 8/14/2
f 48/50/33 1/7/7 45/51/36
f 67/52/30 25/33/27 69/53/37
f 69/53/37 22/29/23 66/54/38
f 61/45/31 21/55/19 17/26/21
f 53/56/39 22/29/23 9/17/14
f 36/57/40 78/58/41 80/59/42
f 40/60/43 80/61/42 84/62/44
f 30/63/45 37/64/46 29/65/47
f 29/66/47 39/67/48 31/68/49
f 32/69/50 39/67/48 43/70/51
f 32/69/50 33/71/52 30/63/45
f 36/57/40 35/72/53 34/73/54
f 35/72/53 37/64/46 33/71/52
f 40/60/43 44/74/55 41/75/56
f 44/74/55 39/67/48 41/75/56
f 34/73/54 44/74/55 42/76/57
f 35/72/53 43/70/51 44/74/55
f 37/77/46 41/75/56 39/67/48
f 38/78/58 40/60/43 41/75/56
f 42/76/57 84/62/44 86/79/59
f 60/80/60 54/81/61 47/82/62
f 45/51/36 49/83/63 48/50/33
f 46/1/1 49/84/63 50/85/64
f 47/82/62 49/86/63 51/87/65
f 52/49/35 56/88/66 55/48/34
f 53/56/39 56/88/66 57/89/67
f 54/90/61 56/88/66 58/91/68
f 59/92/69 63/93/70 62/94/71
f 60/80/60 63/95/70 64/96/72
f 61/45/31 63/97/70 65/98/32
f 66/54/38 70/99/73 69/53/37
f 67/52/30 70/99/73 71/100/74
f 68/101/75 70/99/73 72/102/76
f 62/94/71 45/51/36 59/92/69
f 60/80/60 51/87/65 62/103/71
f 50/85/64 52/104/35 46/1/1
f 50/105/64 54/81/61 58/106/68
f 57/89/67 66/54/38 53/56/39
f 54/90/61 72/102/76 57/89/67
f 67/44/30 64/107/72 61/45/31
f 68/108/75 64/96/72 71/109/74
f 81/110/77 74/111/78 73/112/79
f 83/113/80 73/114/79 75/115/81
f 76/116/82 83/113/80 75/115/81
f 77/117/83 76/116/82 74/111/78
f 79/118/84 80/59/42 78/58/41
f 79/118/84 81/110/77 82/119/85
f 84/62/44 88/120/86 86/79/59
f 83/113/80 88/120/86 85/121/87
f 88/120/86 78/58/41 86/79/59
f 87/122/88 79/118/84 88/120/86
f 85/121/87 81/123/77 83/113/80
f 84/62/44 82/124/85 85/121/87
f 45/51/36 15/21/17 59/92/69
f 34/73/54 86/79/59 78/58/41
f 46/1/1 52/104/35 8/2/2
f 10/4/4 24/42/28 16/5/5
f 1/7/7 4/125/10 5/8/8
f 2/3/3 6/38/11 5/10/8
f 3/6/6 7/37/9 5/12/8
f 8/14/2 11/18/15 12/15/12
f 9/17/14 13/20/16 12/15/12
f 10/19/4 14/16/13 12/15/12
f 15/21/17 18/36/20 19/22/18
f 16/5/5 20/41/22 19/24/18
f 17/26/21 21/55/19 19/27/18
f 22/29/23 25/33/27 26/30/24
f 23/32/26 27/35/29 26/30/24
f 24/34/28 28/31/25 26/30/24
f 1/7/7 7/9/9 18/36/20
f 7/37/9 3/6/6 16/5/5
f 8/2/2 14/126/13 6/38/11
f 6/13/11 14/127/13 10/4/4
f 22/29/23 28/31/25 13/20/16
f 28/31/25 24/34/28 10/19/4
f 23/39/26 17/26/21 20/28/22
f 20/41/22 16/5/5 24/42/28
f 17/26/21 23/39/26 67/44/30
f 65/46/32 59/92/69 15/21/17
f 46/1/1 2/3/3 4/11/10
f 55/48/34 53/56/39 9/17/14
f 52/49/35 55/48/34 11/18/15
f 48/50/33 4/125/10 1/7/7
f 67/52/30 23/32/26 25/33/27
f 69/53/37 25/33/27 22/29/23
f 61/45/31 65/98/32 21/55/19
f 53/56/39 66/54/38 22/29/23
f 36/57/40 34/73/54 78/58/41
f 40/60/43 36/128/40 80/61/42
f 30/63/45 33/71/52 37/64/46
f 29/66/47 37/77/46 39/67/48
f 32/69/50 31/68/49 39/67/48
f 32/69/50 43/70/51 33/71/52
f 36/57/40 38/129/58 35/72/53
f 35/72/53 38/129/58 37/64/46
f 40/60/43 42/76/57 44/74/55
f 44/74/55 43/70/51 39/67/48
f 34/73/54 35/72/53 44/74/55
f 35/72/53 33/71/52 43/70/51
f 37/77/46 38/78/58 41/75/56
f 38/78/58 36/128/40 40/60/43
f 42/76/57 40/60/43 84/62/44
f 60/80/60 68/108/75 54/81/61
f 45/51/36 51/130/65 49/83/63
f 46/1/1 48/47/33 49/84/63
f 47/82/62 50/105/64 49/86/63
f 52/49/35 58/91/68 56/88/66
f 53/56/39 55/48/34 56/88/66
f 54/90/61 57/89/67 56/88/66
f 59/92/69 65/46/32 63/93/70
f 60/80/60 62/103/71 63/95/70
f 61/45/31 64/107/72 63/97/70
f 66/54/38 72/102/76 70/99/73
f 67/52/30 69/53/37 70/99/73
f 68/101/75 71/100/74 70/99/73
f 62/94/71 51/130/65 45/51/36
f 60/80/60 47/82/62 51/87/65
f 50/85/64 58/131/68 52/104/35
f 50/105/64 47/82/62 54/81/61
f 57/89/67 72/102/76 66/54/38
f 54/90/61 68/101/75 72/102/76
f 67/44/30 71/132/74 64/107/72
f 68/108/75 60/80/60 64/96/72
f 81/110/77 77/117/83 74/111/78
f 83/113/80 81/123/77 73/114/79
f 76/116/82 87/122/88 83/113/80
f 77/117/83 87/122/88 76/116/82
f 79/118/84 82/119/85 80/59/42
f 79/118/84 77/117/83 81/110/77
f 84/62/44 85/121/87 88/120/86
f 83/113/80 87/122/88 88/120/86
f 88/120/86 79/118/84 78/58/41
f 87/122/88 77/117/83 79/118/84
f 85/121/87 82/124/85 81/123/77
f 84/62/44 80/61/42 82/124/85
f 45/51/36 1/7/7 15/21/17
f 34/73/54 42/76/57 86/79/59
