# Blender v2.90.0 OBJ File: ''
# www.blender.org
o small_table
v 0.000000 0.750000 0.500000
v 0.191342 0.700000 0.461940
v 0.191342 0.750000 0.461940
v -0.191342 0.750000 -0.461940
v -0.353553 0.700000 -0.353553
v -0.353553 0.750000 -0.353553
v 0.353553 0.700000 0.353554
v 0.353553 0.750000 0.353554
v -0.461940 0.700000 -0.191342
v -0.461940 0.750000 -0.191342
v 0.461940 0.700000 0.191342
v 0.461940 0.750000 0.191342
v -0.500000 0.700000 0.000000
v -0.500000 0.750000 0.000000
v 0.500000 0.700000 0.000000
v 0.500000 0.750000 0.000000
v -0.461940 0.700000 0.191342
v -0.461940 0.750000 0.191342
v 0.461940 0.700000 -0.191342
v 0.461940 0.750000 -0.191342
v -0.353553 0.700000 0.353553
v -0.353553 0.750000 0.353553
v 0.353553 0.700000 -0.353554
v 0.353553 0.750000 -0.353554
v -0.191342 0.700000 0.461940
v -0.191342 0.750000 0.461940
v 0.191341 0.700000 -0.461940
v 0.191341 0.750000 -0.461940
v 0.000000 0.700000 0.500000
v 0.000000 0.750000 -0.500000
v -0.191342 0.700000 -0.461940
v 0.000000 0.700000 -0.500000
v 0.000000 0.700000 0.000000
v 0.000000 0.750000 0.000000
v -0.230000 0.730000 -0.170000
v -0.230000 0.000000 -0.230000
v -0.230000 0.000000 -0.170000
v -0.230000 0.730000 -0.230000
v -0.170000 0.000000 -0.230000
v -0.170000 0.730000 -0.230000
v -0.170000 0.000000 -0.170000
v -0.170000 0.730000 -0.170000
v -0.230000 0.730000 0.230000
v -0.230000 -0.000000 0.170000
v -0.230000 -0.000000 0.230000
v -0.230000 0.730000 0.170000
v -0.170000 -0.000000 0.170000
v -0.170000 0.730000 0.170000
v -0.170000 -0.000000 0.230000
v -0.170000 0.730000 0.230000
v 0.170000 0.730000 0.230000
v 0.170000 -0.000000 0.170000
v 0.170000 -0.000000 0.230000
v 0.170000 0.730000 0.170000
v 0.230000 -0.000000 0.170000
v 0.230000 0.730000 0.170000
v 0.230000 -0.000000 0.230000
v 0.230000 0.730000 0.230000
v 0.170000 0.730000 -0.170000
v 0.170000 0.000000 -0.230000
v 0.170000 0.000000 -0.170000
v 0.170000 0.730000 -0.230000
v 0.230000 0.000000 -0.230000
v 0.230000 0.730000 -0.230000
v 0.230000 0.000000 -0.170000
v 0.230000 0.730000 -0.170000
vt 0.950954 0.000206
vt 0.975167 0.094682
vt 0.950954 0.094682
vt 0.975580 0.094682
vt 0.999793 0.189157
vt 0.975580 0.189157
vt 0.975167 0.189158
vt 0.950954 0.189158
vt 0.999793 0.283633
vt 0.975580 0.283633
vt 0.975167 0.283633
vt 0.950954 0.283633
vt 0.999793 0.378108
vt 0.975580 0.378108
vt 0.975167 0.378108
vt 0.950954 0.378108
vt 0.999794 0.472584
vt 0.975580 0.472584
vt 0.975167 0.472584
vt 0.950954 0.472584
vt 0.999794 0.567060
vt 0.975580 0.567060
vt 0.975167 0.567060
vt 0.950954 0.567060
vt 0.999793 0.661535
vt 0.975580 0.661535
vt 0.975167 0.661535
vt 0.950954 0.661535
vt 0.999794 0.756011
vt 0.975580 0.756011
vt 0.975580 0.000206
vt 0.999793 0.094682
vt 0.975167 0.756011
vt 0.950954 0.756011
vt 0.372209 0.439013
vt 0.284925 0.475167
vt 0.237687 0.237687
vt 0.036361 0.103165
vt 0.103165 0.036361
vt 0.190449 0.000206
vt 0.439013 0.372209
vt 0.000206 0.190449
vt 0.475167 0.284925
vt 0.000206 0.284925
vt 0.475167 0.190449
vt 0.036361 0.372209
vt 0.439013 0.103165
vt 0.103165 0.439013
vt 0.372209 0.036361
vt 0.190449 0.475167
vt 0.284925 0.000206
vt 0.760299 0.475167
vt 0.665823 0.475167
vt 0.713061 0.237687
vt 0.760298 0.000206
vt 0.847582 0.036361
vt 0.578539 0.439013
vt 0.914387 0.103165
vt 0.511734 0.372209
vt 0.950541 0.190449
vt 0.475580 0.284925
vt 0.950541 0.284925
vt 0.475580 0.190449
vt 0.914387 0.372209
vt 0.511734 0.103165
vt 0.847583 0.439013
vt 0.578539 0.036361
vt 0.665823 0.000206
vt 0.000206 0.679386
vt 0.353720 0.650330
vt 0.353720 0.679387
vt 0.000207 0.650330
vt 0.353720 0.621274
vt 0.000207 0.621274
vt 0.353720 0.592218
vt 0.000206 0.708442
vt 0.353719 0.708443
vt 0.382776 0.592218
vt 0.382776 0.621274
vt 0.382776 0.533693
vt 0.029263 0.562749
vt 0.029263 0.533693
vt 0.382776 0.562748
vt 0.029263 0.591805
vt 0.382776 0.475581
vt 0.029263 0.504636
vt 0.029263 0.475580
vt 0.382776 0.504637
vt 0.000206 0.504636
vt 0.000206 0.475580
vt 0.000206 0.737912
vt 0.353720 0.708856
vt 0.353720 0.737912
vt 0.000206 0.825080
vt 0.353719 0.796024
vt 0.353719 0.825080
vt 0.000206 0.796024
vt 0.353720 0.766968
vt 0.000206 0.766968
vt 0.382776 0.708856
vt 0.765758 0.475581
vt 0.412245 0.504636
vt 0.412245 0.475580
vt 0.765758 0.504637
vt 0.412245 0.533693
vt 0.765758 0.533693
vt 0.412245 0.562749
vt 0.765758 0.562748
vt 0.412245 0.591805
vt 0.383189 0.504636
vt 0.975167 0.000206
vt 0.999793 0.000206
vt 0.000207 0.592218
vt 0.382776 0.591804
vt 0.000206 0.708856
vt 0.382776 0.737912
vt 0.765758 0.591804
vt 0.383189 0.475580
vn 0.0000 0.6657 0.7462
vn 0.2856 -0.6657 0.6894
vn 0.2856 0.6657 0.6894
vn -0.2856 0.6657 -0.6894
vn -0.5276 -0.6657 -0.5276
vn -0.5276 0.6657 -0.5276
vn 0.5276 -0.6657 0.5276
vn 0.5276 0.6657 0.5276
vn -0.6894 -0.6657 -0.2856
vn -0.6894 0.6657 -0.2856
vn 0.6894 -0.6657 0.2856
vn 0.6894 0.6657 0.2856
vn -0.7462 -0.6657 -0.0000
vn -0.7462 0.6657 0.0000
vn 0.7462 -0.6657 -0.0000
vn 0.7462 0.6657 0.0000
vn -0.6894 -0.6657 0.2856
vn -0.6894 0.6657 0.2856
vn 0.6894 -0.6657 -0.2856
vn 0.6894 0.6657 -0.2856
vn -0.5276 -0.6657 0.5276
vn -0.5276 0.6657 0.5276
vn 0.5276 -0.6657 -0.5276
vn 0.5276 0.6657 -0.5276
vn -0.2856 -0.6657 0.6894
vn -0.2856 0.6657 0.6894
vn 0.2856 -0.6657 -0.6894
vn 0.2856 0.6657 -0.6894
vn 0.0000 -0.6657 0.7462
vn 0.0000 0.6657 -0.7462
vn -0.2856 -0.6657 -0.6894
vn 0.0000 -0.6657 -0.7462
vn 0.0000 -1.0000 -0.0000
vn -0.0000 1.0000 0.0000
vn -0.7071 -0.0000 0.7071
vn -0.5774 -0.5774 -0.5774
vn -0.5774 -0.5774 0.5774
vn -0.7071 0.0000 -0.7071
vn 0.5774 -0.5773 -0.5774
vn 0.7071 0.0000 -0.7071
vn 0.5774 -0.5774 0.5774
vn 0.7071 -0.0000 0.7071
s 1
f 1/1/1 2/2/2 3/3/3
f 4/4/4 5/5/5 6/6/6
f 3/3/3 7/7/7 8/8/8
f 6/6/6 9/9/9 10/10/10
f 8/8/8 11/11/11 12/12/12
f 10/10/10 13/13/13 14/14/14
f 12/12/12 15/15/15 16/16/16
f 14/14/14 17/17/17 18/18/18
f 16/16/16 19/19/19 20/20/20
f 18/18/18 21/21/21 22/22/22
f 20/20/20 23/23/23 24/24/24
f 22/22/22 25/25/25 26/26/26
f 24/24/24 27/27/27 28/28/28
f 26/26/26 29/29/29 1/30/1
f 30/31/30 31/32/31 4/4/4
f 28/28/28 32/33/32 30/34/30
f 29/35/29 25/36/25 33/37/33
f 31/38/31 32/39/32 33/37/33
f 32/39/32 27/40/27 33/37/33
f 2/41/2 29/35/29 33/37/33
f 5/42/5 31/38/31 33/37/33
f 7/43/7 2/41/2 33/37/33
f 9/44/9 5/42/5 33/37/33
f 11/45/11 7/43/7 33/37/33
f 13/46/13 9/44/9 33/37/33
f 15/47/15 11/45/11 33/37/33
f 17/48/17 13/46/13 33/37/33
f 19/49/19 15/47/15 33/37/33
f 21/50/21 17/48/17 33/37/33
f 23/51/23 19/49/19 33/37/33
f 25/36/25 21/50/21 33/37/33
f 27/40/27 23/51/23 33/37/33
f 1/52/1 3/53/3 34/54/34
f 4/55/4 6/56/6 34/54/34
f 3/53/3 8/57/8 34/54/34
f 6/56/6 10/58/10 34/54/34
f 8/57/8 12/59/12 34/54/34
f 10/58/10 14/60/14 34/54/34
f 12/59/12 16/61/16 34/54/34
f 14/60/14 18/62/18 34/54/34
f 16/61/16 20/63/20 34/54/34
f 18/62/18 22/64/22 34/54/34
f 20/63/20 24/65/24 34/54/34
f 22/64/22 26/66/26 34/54/34
f 24/65/24 28/67/28 34/54/34
f 26/66/26 1/52/1 34/54/34
f 30/68/30 4/55/4 34/54/34
f 28/67/28 30/68/30 34/54/34
f 35/69/35 36/70/36 37/71/37
f 38/72/38 39/73/39 36/70/36
f 40/74/40 41/75/41 39/73/39
f 42/76/42 37/71/37 41/77/41
f 39/73/39 37/78/37 36/79/36
f 43/80/35 44/81/36 45/82/37
f 46/83/38 47/84/39 44/81/36
f 48/85/40 49/86/41 47/87/39
f 50/88/42 45/82/37 49/86/41
f 47/87/39 45/89/37 44/90/36
f 51/91/35 52/92/36 53/93/37
f 54/94/38 55/95/39 52/96/36
f 56/97/40 57/98/41 55/95/39
f 58/99/42 53/93/37 57/98/41
f 55/100/39 53/93/37 52/92/36
f 59/101/35 60/102/36 61/103/37
f 62/104/38 63/105/39 60/102/36
f 64/106/40 65/107/41 63/105/39
f 66/108/42 61/109/37 65/107/41
f 63/110/39 61/103/37 60/102/36
f 1/1/1 29/111/29 2/2/2
f 4/4/4 31/32/31 5/5/5
f 3/3/3 2/2/2 7/7/7
f 6/6/6 5/5/5 9/9/9
f 8/8/8 7/7/7 11/11/11
f 10/10/10 9/9/9 13/13/13
f 12/12/12 11/11/11 15/15/15
f 14/14/14 13/13/13 17/17/17
f 16/16/16 15/15/15 19/19/19
f 18/18/18 17/17/17 21/21/21
f 20/20/20 19/19/19 23/23/23
f 22/22/22 21/21/21 25/25/25
f 24/24/24 23/23/23 27/27/27
f 26/26/26 25/25/25 29/29/29
f 30/31/30 32/112/32 31/32/31
f 28/28/28 27/27/27 32/33/32
f 35/69/35 38/72/38 36/70/36
f 38/72/38 40/74/40 39/73/39
f 40/74/40 42/113/42 41/75/41
f 42/76/42 35/69/35 37/71/37
f 39/73/39 41/75/41 37/78/37
f 43/80/35 46/83/38 44/81/36
f 46/83/38 48/114/40 47/84/39
f 48/85/40 50/88/42 49/86/41
f 50/88/42 43/80/35 45/82/37
f 47/87/39 49/86/41 45/89/37
f 51/91/35 54/115/38 52/92/36
f 54/94/38 56/97/40 55/95/39
f 56/97/40 58/99/42 57/98/41
f 58/99/42 51/91/35 53/93/37
f 55/100/39 57/116/41 53/93/37
f 59/101/35 62/104/38 60/102/36
f 62/104/38 64/106/40 63/105/39
f 64/106/40 66/108/42 65/107/41
f 66/108/42 59/117/35 61/109/37
f 63/110/39 65/118/41 61/103/37
